<?xml version="1.0" encoding="utf-8"?>
<!-- AGenerator: Adobe Illustrator 23.0.6, SVG Export Plug-In . SVG Version: 6.00 Build 0)  -->
<svg version="1.0" id="Ebene_1" xmlns="http://www.w3.org/2000/svg" xmlns:xlink="http://www.w3.org/1999/xlink" x="0px" y="0px"
	 viewBox="0 0 266.46 45.35" style="enable-background:new 0 0 266.46 45.35;" xml:space="preserve">
<style type="text/css">
	.st0{fill:#717070;}
</style>
<g>
	<path class="st0" d="M257.66,30.84h3.26v-5.36c0-2.11,0.8-3.82,3.22-3.82c0.39,0,0.87,0.05,1.17,0.11v-3.03
		c-0.23-0.07-0.46-0.11-0.71-0.11c-1.63,0-3.17,1.03-3.79,2.53h-0.05v-2.21h-3.1V30.84z M255.73,25.69
		c0.25-3.66-1.72-7.06-5.77-7.06c-3.61,0-6.07,2.71-6.07,6.28c0,3.68,2.32,6.25,6.07,6.25c2.69,0,4.64-1.17,5.56-4h-2.87
		c-0.21,0.74-1.26,1.54-2.57,1.54c-1.84,0-2.83-0.92-2.92-3.01H255.73z M247.16,23.63c0.07-0.92,0.6-2.53,2.71-2.53
		c1.59,0,2.3,0.87,2.6,2.53H247.16z M243.36,18.96h-3.38l-2.6,8.14h-0.05l-2.69-8.14h-3.49l4.18,11.15
		c0.09,0.23,0.14,0.48,0.14,0.74c0,0.74-0.41,1.4-1.26,1.49c-0.64,0.02-1.29-0.05-1.91-0.11v2.69c0.67,0.07,1.33,0.12,2,0.12
		c2.23,0,3.38-0.78,4.09-2.69L243.36,18.96z M226.74,26.25c0,0.74-0.09,2.74-2.64,2.74c-1.06,0-2-0.32-2-1.52
		c0-1.2,0.92-1.56,1.93-1.75c1.01-0.18,2.16-0.21,2.71-0.69V26.25z M222.47,22.61c0.12-1.29,0.9-1.79,2.16-1.79
		c1.15,0,2.12,0.23,2.12,1.61c0.14,2.67-7.86-0.23-7.91,5.17c0,2.44,1.77,3.56,4.05,3.56c1.47,0,2.97-0.39,4-1.47
		c0.02,0.39,0.12,0.78,0.23,1.15h3.31c-0.3-0.48-0.41-1.56-0.41-2.64v-6.18c0-2.85-2.85-3.38-5.22-3.38c-2.67,0-5.4,0.94-5.59,3.98
		H222.47z M198.6,30.84h3.26v-6.9c0-2.32,1.56-2.73,2.21-2.73c2.07,0,1.98,1.59,1.98,2.97v6.67h3.26v-6.62
		c0-1.47,0.34-3.01,2.18-3.01c1.86,0,2,1.31,2,2.9v6.74h3.26v-7.95c0-3.08-1.82-4.25-4.35-4.25c-1.65,0-2.87,0.94-3.59,1.98
		c-0.64-1.45-1.98-1.98-3.47-1.98c-1.56,0-2.78,0.71-3.63,1.93h-0.05v-1.61h-3.08V30.84z M189.57,30.84h3.26v-5.36
		c0-2.11,0.8-3.82,3.22-3.82c0.39,0,0.87,0.05,1.17,0.11v-3.03c-0.23-0.07-0.46-0.11-0.71-0.11c-1.63,0-3.17,1.03-3.79,2.53h-0.05
		v-2.21h-3.1V30.84z M187.64,25.69c0.25-3.66-1.72-7.06-5.77-7.06c-3.61,0-6.07,2.71-6.07,6.28c0,3.68,2.32,6.25,6.07,6.25
		c2.69,0,4.64-1.17,5.56-4h-2.87c-0.21,0.74-1.26,1.54-2.58,1.54c-1.84,0-2.83-0.92-2.92-3.01H187.64z M179.06,23.63
		c0.07-0.92,0.6-2.53,2.71-2.53c1.59,0,2.3,0.87,2.6,2.53H179.06z M162.74,30.84h3.26v-6.23c0-2.41,0.76-3.4,2.53-3.4
		c1.54,0,2.09,0.97,2.09,2.92v6.71h3.26v-7.31c0-2.94-0.87-4.9-4.35-4.9c-1.22,0-2.64,0.62-3.47,1.98h-0.07v-6.18h-3.26V30.84z
		 M160.83,23.14c-0.18-3.03-2.78-4.51-5.59-4.51c-3.86,0-6.07,2.74-6.07,6.44c0,3.56,2.41,6.09,6,6.09c3.15,0,5.29-1.72,5.72-4.87
		h-3.15c-0.21,1.47-1.06,2.41-2.6,2.41c-2.05,0-2.71-2.02-2.71-3.75c0-1.75,0.69-3.86,2.78-3.86c1.4,0,2.21,0.69,2.41,2.05H160.83z
		 M143.75,26.25c0,0.74-0.09,2.74-2.64,2.74c-1.06,0-2-0.32-2-1.52c0-1.2,0.92-1.56,1.93-1.75c1.01-0.18,2.16-0.21,2.71-0.69V26.25z
		 M139.48,22.61c0.12-1.29,0.9-1.79,2.16-1.79c1.15,0,2.12,0.23,2.12,1.61c0.14,2.67-7.86-0.23-7.91,5.17
		c0,2.44,1.77,3.56,4.05,3.56c1.47,0,2.96-0.39,4-1.47c0.02,0.39,0.12,0.78,0.23,1.15h3.31c-0.3-0.48-0.41-1.56-0.41-2.64v-6.18
		c0-2.85-2.85-3.38-5.22-3.38c-2.67,0-5.4,0.94-5.59,3.98H139.48z M122.72,30.84h3.26v-6.23c0-2.41,0.76-3.4,2.53-3.4
		c1.54,0,2.09,0.97,2.09,2.92v6.71h3.26v-7.31c0-2.94-0.87-4.9-4.35-4.9c-1.22,0-2.64,0.62-3.47,1.98h-0.07v-6.18h-3.26V30.84z
		 M120.81,23.14c-0.18-3.03-2.78-4.51-5.59-4.51c-3.86,0-6.07,2.74-6.07,6.44c0,3.56,2.41,6.09,6,6.09c3.15,0,5.29-1.72,5.72-4.87
		h-3.15c-0.21,1.47-1.06,2.41-2.6,2.41c-2.05,0-2.71-2.02-2.71-3.75c0-1.75,0.69-3.86,2.78-3.86c1.4,0,2.21,0.69,2.41,2.05H120.81z
		 M96.6,26.98c0.11,3.15,2.83,4.18,5.59,4.18c2.69,0,5.43-1.01,5.43-4.14c0-2.21-1.86-2.9-3.77-3.33c-1.84-0.44-3.7-0.6-3.7-1.77
		c0-0.99,1.08-1.1,1.82-1.1c1.17,0,2.14,0.34,2.23,1.61h3.1c-0.25-2.92-2.67-3.79-5.24-3.79c-2.55,0-5.17,0.78-5.17,3.82
		c0,2.11,1.86,2.74,3.77,3.17c2.32,0.48,3.7,0.85,3.7,1.84c0,1.15-1.22,1.52-2.14,1.52c-1.26,0-2.5-0.6-2.5-2H96.6z"/>
	<path class="st0" d="M39.7,27.16v-8.51c0-1.57,1.27-2.86,2.84-2.86c1.55,0,2.84,1.29,2.84,2.86l-0.02,1.42h9.55
		c-0.02-0.11-0.08-0.35-0.08-0.35c-1.4-5.48-6.38-9.53-12.27-9.53c-7.02,0-12.7,5.7-12.7,12.7s5.68,12.7,12.7,12.7
		c5.91,0,10.92-4.08,12.3-9.56h0.02l0.03-0.31h-9.55l0.02,1.44c0,1.55-1.29,2.81-2.82,2.81C41,29.97,39.7,28.71,39.7,27.16
		 M41.13,27.17c0,0.76,0.64,1.42,1.42,1.42c0.76,0,1.4-0.66,1.4-1.42V24.3h12.62l0.02,0.03l-0.02-0.02
		C55.85,31.45,49.84,37,42.55,37c-7.8,0-14.12-6.33-14.12-14.1c0-7.78,6.33-14.1,14.12-14.1c7.28,0,13.29,5.58,14.04,12.68H43.96
		l0.02-2.87c0-0.78-0.66-1.4-1.42-1.4c-0.78,0-1.42,0.58-1.42,1.36l0,8.6V27.17z M67.74,35.25c0.18,0.05,0.22,0.03,0.22,0.03v-7.71
		c0-1.54,1.27-2.82,2.81-2.82c1.55,0,2.82,1.29,2.82,2.82v7.71c5.76-1.22,9.99-6.26,9.99-12.37s-4.14-11.16-9.91-12.39v7.68
		c0,1.55-1.26,2.82-2.81,2.82c-1.54,0-2.81-1.27-2.81-2.82v-7.68c-5.76,1.22-9.88,6.28-9.88,12.39
		C58.18,28.84,62.26,33.85,67.74,35.25 M69.34,36.94c-7.12-0.73-12.67-6.76-12.67-14.04S62.26,9.62,69.36,8.87v9.3
		c0,0.79,0.64,1.44,1.42,1.44c0.79,0,1.44-0.64,1.44-1.44l-0.01-9.36c7.12,0.73,12.71,6.8,12.71,14.08s-5.61,13.29-12.71,14.03
		l0.01-9.34c0-0.78-0.64-1.42-1.44-1.42c-0.78,0-1.42,0.64-1.42,1.42v9.35H69.34z M4.1,30.39c2.3,3.25,5.93,5.2,10.22,5.2
		c7,0,12.72-5.7,12.72-12.7c0-0.66-0.02-1.26-0.12-1.9h-12.6c-1.55,0-2.82-1.27-2.82-2.82c0-1.54,1.27-2.81,2.82-2.81h10.26
		c-0.05-0.08-0.22-0.26-0.22-0.26c-2.35-2.99-5.98-4.92-10.04-4.92c-7,0-12.7,5.71-12.7,12.72c0,0.68,0,1.2,0.1,1.85l12.61,0
		c1.54,0,2.81,1.3,2.81,2.84c0,1.55-1.32,2.8-2.85,2.8L4.1,30.39z M0.58,26.17C0.27,25.01,0.2,24.15,0.2,22.9
		c0-7.78,6.33-14.12,14.12-14.12c5.34,0,10.01,2.94,12.39,7.35c0.08,0.15,0.25,0.5,0.33,0.64H14.33c-0.78,0-1.42,0.64-1.42,1.4
		c0,0.78,0.64,1.42,1.42,1.42h13.71c0.26,1.07,0.41,2.15,0.41,3.3c0,7.78-6.34,14.1-14.12,14.1c-5.68,0-10.47-3.15-12.7-8.01
		l12.69-0.01c0.76,0,1.41-0.62,1.41-1.4c0-0.76-0.64-1.4-1.4-1.4L0.58,26.17z"/>
	<g>
		<rect x="90.1" y="0.4" class="st0" width="0.66" height="44.83"/>
	</g>
</g>
</svg>
